<svg id="_x31__x2C_5" enable-background="new 0 0 24 24" height="512" viewBox="0 0 24 24" width="512" xmlns="http://www.w3.org/2000/svg"><path d="m23.18 3.25v2h-22.36v-2c0-.83.67-1.5 1.5-1.5h19.36c.83 0 1.5.67 1.5 1.5z" fill="#607d8b"/><path d="m23.18 5.25v15.5c0 .83-.67 1.5-1.5 1.5h-19.36c-.83 0-1.5-.67-1.5-1.5v-15.5z" fill="#eceff1"/><path d="m7 12.458c-.804 0-1.458-.654-1.458-1.458s.654-1.458 1.458-1.458 1.458.654 1.458 1.458-.654 1.458-1.458 1.458z" fill="#f44336"/><path d="m17 12.458c-.804 0-1.458-.654-1.458-1.458s.654-1.458 1.458-1.458 1.458.654 1.458 1.458-.654 1.458-1.458 1.458z" fill="#f44336"/><path d="m7 13c-1.103 0-2-.897-2-2s.897-2 2-2 2 .897 2 2-.897 2-2 2zm0-2.5c-.276 0-.5.225-.5.5s.224.5.5.5.5-.225.5-.5-.224-.5-.5-.5z"/><path d="m17 13c-1.103 0-2-.897-2-2s.897-2 2-2 2 .897 2 2-.897 2-2 2zm0-2.5c-.276 0-.5.225-.5.5s.224.5.5.5.5-.225.5-.5-.224-.5-.5-.5z"/><path d="m17.303 19.75c-.192 0-.384-.073-.53-.22-2.632-2.631-6.914-2.631-9.546 0-.293.293-.768.293-1.061 0s-.293-.768 0-1.061c3.217-3.217 8.45-3.217 11.667 0 .293.293.293.768 0 1.061-.146.147-.338.22-.53.22z"/><path d="m21.25 23h-18.5c-1.517 0-2.75-1.233-2.75-2.75v-16.5c0-1.517 1.233-2.75 2.75-2.75h18.5c1.517 0 2.75 1.233 2.75 2.75v16.5c0 1.517-1.233 2.75-2.75 2.75zm-18.5-20.5c-.689 0-1.25.561-1.25 1.25v16.5c0 .689.561 1.25 1.25 1.25h18.5c.689 0 1.25-.561 1.25-1.25v-16.5c0-.689-.561-1.25-1.25-1.25z"/><path d="m23.25 6h-22.5c-.414 0-.75-.336-.75-.75s.336-.75.75-.75h22.5c.414 0 .75.336.75.75s-.336.75-.75.75z"/></svg>